<svg width="15" height="15" viewBox="0 0 15 15" fill="none" xmlns="http://www.w3.org/2000/svg">
<g clip-path="url(#clip0_264_835)">
<path fill-rule="evenodd" clip-rule="evenodd" d="M4.54022 2.40701C4.68007 1.72586 5.05122 1.11405 5.59072 0.675342C6.13022 0.236633 6.80486 -0.00196531 7.50022 1.21939e-05C8.19558 -0.00196531 8.87021 0.236633 9.40971 0.675342C9.94922 1.11405 10.3204 1.72586 10.4602 2.40701L10.7982 4.07901C10.9746 4.95457 11.3219 5.78677 11.8202 6.52801L12.4002 7.39101C12.7632 7.93001 13.0002 8.53901 13.0982 9.17301C13.382 9.19644 13.6538 9.2981 13.8833 9.46669C14.1128 9.63528 14.291 9.8642 14.3982 10.128L14.8902 11.348C15.0105 11.6477 15.0322 11.9779 14.9522 12.2908C14.8722 12.6036 14.6946 12.8829 14.4452 13.088L12.5612 14.646C12.294 14.8662 11.9607 14.9906 11.6145 14.9993C11.2683 15.008 10.9292 14.9005 10.6512 14.694L9.89122 14.13C9.88144 14.1225 9.87177 14.1148 9.86222 14.107C9.49022 14.207 9.09822 14.261 8.69422 14.261H6.30622C5.90222 14.261 5.51022 14.208 5.13822 14.107L5.10822 14.13L4.34922 14.694C4.07124 14.9005 3.73212 15.008 3.38594 14.9993C3.03977 14.9906 2.70647 14.8662 2.43922 14.646L0.55422 13.089C0.304582 12.8836 0.126936 12.604 0.0470905 12.2907C-0.0327549 11.9774 -0.010641 11.6469 0.11022 11.347L0.60222 10.128C0.709428 9.8642 0.887684 9.63528 1.11718 9.46669C1.34667 9.2981 1.61842 9.19644 1.90222 9.17301C2.00092 8.53505 2.23889 7.92664 2.59922 7.39101L3.17922 6.52801C3.67784 5.78683 4.02546 4.95464 4.20222 4.07901L4.53922 2.40701H4.54022ZM10.8442 9.47601C10.6304 9.63591 10.4622 9.84896 10.3562 10.094L9.58822 11.871C9.1929 12.1022 8.74318 12.224 8.28522 12.224H6.71522C6.24822 12.224 5.80022 12.098 5.41222 11.871L4.64422 10.094C4.53806 9.8488 4.36945 9.63571 4.15522 9.47601C4.18122 9.15401 4.26922 8.83501 4.41922 8.53801L5.67722 6.04301L5.68422 6.05001C6.16775 6.52805 6.82027 6.79616 7.50022 6.79616C8.18017 6.79616 8.83269 6.52805 9.31622 6.05001L9.32322 6.04301L10.5812 8.53801C10.7312 8.83501 10.8192 9.15401 10.8452 9.47601H10.8442ZM9.04122 4.26901V3.05601H8.01422V3.85701C8.23222 3.90101 8.44522 3.97401 8.64822 4.07501L9.04122 4.26901ZM6.98622 3.85701V3.05601H5.96022V4.26901L6.35322 4.07501C6.55622 3.97401 6.77022 3.90101 6.98722 3.85701H6.98622ZM2.03322 10.187C1.93089 10.1868 1.83083 10.2172 1.74585 10.2742C1.66087 10.3312 1.59484 10.4123 1.55622 10.507L1.06422 11.726C1.02414 11.8259 1.01688 11.9359 1.04349 12.0402C1.0701 12.1445 1.12919 12.2376 1.21222 12.306L3.09622 13.863C3.18524 13.9366 3.29634 13.9782 3.41179 13.9813C3.52724 13.9844 3.6404 13.9487 3.73322 13.88L4.49222 13.315C4.5841 13.247 4.65029 13.1499 4.68006 13.0396C4.70983 12.9292 4.70143 12.812 4.65622 12.707L3.70022 10.495C3.66024 10.4031 3.59426 10.3249 3.5104 10.27C3.42654 10.2151 3.32845 10.1859 3.22822 10.186H2.03322V10.187ZM13.4442 10.507C13.4056 10.4123 13.3396 10.3312 13.2546 10.2742C13.1696 10.2172 13.0695 10.1868 12.9672 10.187H11.7722C11.6721 10.1868 11.5741 10.2158 11.4902 10.2706C11.4064 10.3253 11.3403 10.4033 11.3002 10.495L10.3442 12.707C10.299 12.812 10.2906 12.9292 10.3204 13.0396C10.3502 13.1499 10.4163 13.247 10.5082 13.315L11.2672 13.88C11.4572 14.021 11.7212 14.014 11.9042 13.863L13.7882 12.306C13.8712 12.2376 13.9303 12.1445 13.9569 12.0402C13.9836 11.9359 13.9763 11.8259 13.9362 11.726L13.4442 10.506V10.507ZM6.81122 4.98601C7.0254 4.8799 7.26119 4.82469 7.50022 4.82469C7.73924 4.82469 7.97504 4.8799 8.18922 4.98601L8.68722 5.23301L8.59022 5.33001C8.30004 5.61703 7.90837 5.77801 7.50022 5.77801C7.09207 5.77801 6.7004 5.61703 6.41022 5.33001L6.31322 5.23301L6.81122 4.98601Z" fill="white"/>
</g>
<defs>
<clipPath id="clip0_264_835">
<rect width="15" height="15" fill="white"/>
</clipPath>
</defs>
</svg>
